<svg width="864" height="197" viewBox="0 0 864 197" fill="none" xmlns="http://www.w3.org/2000/svg">
<path d="M72.6201 42.2931V19.3257H84.1627V21.6813H75.2113V29.2193H83.5738V31.575H75.2113V40.0553H84.1627V42.4109L72.6201 42.2931Z" fill="#228DCD"/>
<path d="M85.9287 42.2931V19.3257H88.5199V40.0553H97.9424V42.4109H85.9287V42.2931Z" fill="#228DCD"/>
<path d="M104.185 42.2934V19.326H110.78C114.903 19.2082 116.552 21.5639 116.669 24.9795C116.787 27.5707 115.963 29.1019 113.254 30.0441V30.1619C116.316 30.5153 117.258 32.7531 117.258 35.5799C117.258 40.1734 114.785 42.529 110.309 42.2934H104.185ZM106.776 29.2197H109.014C112.076 29.3375 113.96 28.8663 113.843 25.3329C113.843 22.5061 112.783 21.6816 108.896 21.6816H106.658L106.776 29.2197ZM110.78 40.0556C113.489 40.0556 114.549 38.76 114.549 35.6977C114.549 31.222 111.605 31.4575 109.014 31.4575H106.776V40.0556H110.78Z" fill="#228DCD"/>
<path d="M119.025 42.2931V19.3257H121.617V40.0553H131.039V42.4109H119.025V42.2931Z" fill="#228DCD"/>
<path d="M138.932 18.9727C145.645 18.9727 146.47 25.2151 146.47 30.3975C146.47 36.7577 145.645 42.8823 138.932 42.8823C132.218 42.8823 131.394 36.7577 131.394 30.3975C131.276 25.0973 132.101 18.9727 138.932 18.9727ZM138.814 21.2105C134.927 21.2105 133.867 25.3329 133.985 30.3975C133.985 36.9933 134.692 40.5267 138.932 40.5267C143.172 40.5267 143.879 36.9933 143.879 30.3975C143.879 25.3329 142.819 21.2105 138.814 21.2105Z" fill="#228DCD"/>
<path d="M162.252 42.5289H160.25V38.9954H160.132C159.425 41.5866 157.423 43 154.832 43C148 43 147.529 36.1687 147.529 30.8685C147.529 25.5683 148.472 19.0903 155.067 19.0903C159.425 19.0903 162.016 21.9171 161.899 26.275H159.307C159.307 23.4483 158.13 21.446 155.185 21.446C150.12 21.3282 150.12 27.0995 150.12 30.9863C150.12 34.5197 149.885 40.5266 154.478 40.7622C159.19 40.9977 159.661 36.6398 159.543 32.9886H154.478V30.6329H162.134L162.252 42.5289Z" fill="#228DCD"/>
<path d="M170.262 42.2931V19.3257H176.622C183.807 19.3257 184.749 25.097 184.631 30.8683C184.396 36.5218 183.335 42.4109 177.093 42.4109L170.262 42.2931ZM172.735 40.0553H176.857C180.626 40.0553 182.158 37.2285 181.922 30.3972C181.687 25.2148 180.98 21.6813 176.857 21.6813H172.735V40.0553Z" fill="#228DCD"/>
<path d="M186.397 42.2931V19.3257H197.94V21.6813H188.989V29.2193H197.351V31.575H188.989V40.0553H197.94V42.4109L186.397 42.2931Z" fill="#228DCD"/>
<path fill-rule="evenodd" clip-rule="evenodd" d="M1.51172 193.424H25.9107V102.969H26.5059L45.549 193.424H66.3774L84.2303 102.969H84.8254V193.424H109.82V77.3799H70.5431L56.2608 153.552L41.9784 77.3799H1.51172V193.424Z" fill="#002475"/>
<path fill-rule="evenodd" clip-rule="evenodd" d="M199.678 77.3799H172.304V163.074C172.304 172 168.733 177.356 161.592 177.356C154.451 177.356 150.88 172 150.88 163.074V77.3799H123.506V155.338C123.506 177.951 130.052 195.804 161.592 195.804C193.132 195.804 199.678 177.951 199.678 155.338V77.3799Z" fill="#002475"/>
<path fill-rule="evenodd" clip-rule="evenodd" d="M228.837 193.424H256.211V99.3985H280.61V77.3799H204.438V99.3985H228.837V193.424Z" fill="#002475"/>
<path fill-rule="evenodd" clip-rule="evenodd" d="M361.546 77.3799H334.172V163.074C334.172 172 330.601 177.356 323.46 177.356C316.319 177.356 312.748 172 312.748 163.074V77.3799H285.374V155.338C285.374 177.951 291.92 195.804 323.46 195.804C355 195.804 361.546 177.951 361.546 155.338V77.3799Z" fill="#002475"/>
<path fill-rule="evenodd" clip-rule="evenodd" d="M419.868 149.981H400.23L409.751 98.2072H410.346L419.868 149.981ZM363.929 193.423H392.493L396.659 171.404H424.629L428.794 193.423H457.359L428.199 76.7837H394.279L363.929 193.423Z" fill="#002475"/>
<path fill-rule="evenodd" clip-rule="evenodd" d="M522.82 154.149C521.63 174.382 513.298 186.879 498.421 186.879C481.758 186.879 471.642 173.192 471.642 135.701C471.642 98.2094 481.758 84.5222 498.421 84.5222C513.298 84.5222 521.63 95.829 521.63 111.302H532.342C532.342 92.2584 522.82 75.5957 499.016 75.5957C475.212 75.5957 462.12 94.0437 462.12 135.701C462.12 177.357 475.212 195.805 499.016 195.805C519.845 195.805 532.342 180.928 533.532 154.149H522.82Z" fill="#002475"/>
<path fill-rule="evenodd" clip-rule="evenodd" d="M565.663 193.424H576.375V85.7112H606.13V77.3799H535.908V85.7112H565.663V193.424Z" fill="#002475"/>
<path d="M624.581 77.3799H613.869V194.019H624.581V77.3799Z" fill="#002475"/>
<path fill-rule="evenodd" clip-rule="evenodd" d="M661.473 193.424H674.565L705.51 77.3799H694.203L668.614 182.117H668.019L642.43 77.3799H631.123L661.473 193.424Z" fill="#002475"/>
<path fill-rule="evenodd" clip-rule="evenodd" d="M710.869 135.105C710.869 176.762 723.961 195.21 747.765 195.21C771.569 195.21 784.661 176.762 784.661 135.105C784.661 93.448 771.569 75 747.765 75C723.961 75 710.869 93.448 710.869 135.105ZM720.986 135.105C720.986 97.6137 731.102 83.9265 747.765 83.9265C764.428 83.9265 774.544 97.6137 774.544 135.105C774.544 172.596 764.428 186.283 747.765 186.283C731.102 186.878 720.986 173.191 720.986 135.105Z" fill="#002475"/>
<path fill-rule="evenodd" clip-rule="evenodd" d="M860.239 107.136C860.239 86.3075 850.123 75.5957 828.699 75.5957C808.466 75.5957 796.564 88.0927 796.564 106.541C796.564 148.793 853.098 129.154 853.098 163.67C853.098 179.738 842.386 187.474 828.104 187.474C812.632 187.474 804.895 177.357 804.895 162.48V158.314H794.184V161.885C794.184 184.499 806.085 196.4 828.104 196.4C849.528 196.4 863.215 185.094 863.215 162.48C863.215 121.418 806.681 140.461 806.681 105.946C806.681 94.6388 814.417 85.1173 828.699 85.1173C842.982 85.1173 849.528 94.0437 849.528 108.326H860.239V107.136Z" fill="#002475"/>
<path d="M10.124 20.1964C10.124 9.01239 19.1364 0 30.3205 0C41.5045 0 50.5169 9.01239 50.5169 20.1964V51.4683H10.124V20.1964Z" fill="#1C8ECE"/>
<path fill-rule="evenodd" clip-rule="evenodd" d="M22.0684 40.1758C21.6341 41.5874 21.0912 42.999 20.6568 44.4106H15.9878L14.7933 40.6102V44.4106H0.786133V39.5243H4.04362C4.47795 39.5243 4.69512 39.4158 4.69512 38.9814V22.5854C4.69512 22.2597 4.58654 22.0425 4.04362 22.0425H0.786133V17.1562H14.4676L19.1367 32.0321C20.3311 27.906 24.0229 17.1562 24.0229 17.1562H37.0529L41.7219 32.0321C42.9163 27.906 46.6082 17.1562 46.6082 17.1562H59.8553V22.0425H56.4892C56.0549 22.0425 55.8377 22.1511 55.8377 22.5854V38.9814C55.8377 39.5243 56.0549 39.7415 56.4892 39.7415H59.8553V44.6278H44.6537V40.2844C44.1107 41.696 43.6764 43.2162 43.2421 44.6278H38.573L37.27 40.7188V44.6278H22.0684V40.1758ZM33.9039 39.6329H36.9443L33.2524 28.1231V38.8728C33.2524 39.4158 33.4696 39.6329 33.9039 39.6329ZM48.7798 39.09V27.2545C47.4768 31.3806 46.1738 35.5068 44.7622 39.6329H48.1283C48.5626 39.6329 48.7798 39.5243 48.7798 39.09ZM11.4273 39.6329H14.4676L10.6672 28.1231V39.09C10.6672 39.6329 11.2101 39.6329 11.4273 39.6329ZM26.3031 39.09V27.2545C25.0001 31.3806 23.6971 35.5068 22.2856 39.6329H25.6516C26.086 39.6329 26.3031 39.5243 26.3031 39.09Z" fill="white"/>
<path d="M9.69023 22.0421V39.4154C9.69023 40.284 10.5589 40.7184 11.4276 40.7184H13.8164V43.5415H1.87225V40.7184H4.1525C5.34691 40.7184 5.78124 40.3926 5.78124 39.4154V22.3679C5.78124 21.4992 5.12974 21.0649 4.26108 21.0649H1.76367V18.2417H13.7078L18.8112 34.7463H18.9198L24.7833 18.2417H36.4016L41.5051 34.7463H41.6136L47.3685 18.2417H58.8783V21.0649H56.2723C55.4037 21.0649 54.7522 21.4992 54.7522 22.3679V38.7639C54.7522 39.9583 55.2951 40.6098 56.3809 40.6098H58.7697V43.433H45.6312V40.6098H48.1286C49.2144 40.6098 49.7574 40.0669 49.7574 39.3068V21.9335L42.4823 43.3244H39.3334L32.3841 21.9335H32.2755V38.7639C32.2755 39.9583 32.8184 40.6098 33.9042 40.6098H36.2931V43.433H23.0459V40.6098H25.5434C26.6292 40.6098 27.1721 40.0669 27.1721 39.3068V21.9335H27.0635L19.7885 43.3244H16.6395L9.69023 22.0421Z" fill="#243367"/>
</svg>
